HIERARCHY
ROOT Hips
{
    OFFSET 0.000000 0.000000 0.000000
    CHANNELS 6 Xposition Yposition Zposition Zrotation Xrotation Yrotation
    JOINT Spine
    {
        OFFSET -0.000000 14.517291 0.000000
        CHANNELS 3 Zrotation Xrotation Yrotation
        JOINT Spine1
        {
            OFFSET -0.000000 37.558300 0.000000
            CHANNELS 3 Zrotation Xrotation Yrotation
            JOINT Neck
            {
                OFFSET -0.000000 37.404057 3.400369
                CHANNELS 3 Zrotation Xrotation Yrotation
                JOINT Head
                {
                    OFFSET -0.000000 24.785618 -3.540803
                    CHANNELS 3 Zrotation Xrotation Yrotation
                    End Site
                    {
                        OFFSET -0.000000 35.408028 0.000000
                    }
                }
            }
            JOINT LeftShoulder
            {
                OFFSET 6.992933 33.973492 -0.192664
                CHANNELS 3 Zrotation Xrotation Yrotation
                JOINT LeftArm
                {
                    OFFSET 21.527611 0.000000 0.000000
                    CHANNELS 3 Zrotation Xrotation Yrotation
                    JOINT LeftForeArm
                    {
                        OFFSET 56.353916 0.000000 0.000000
                        CHANNELS 3 Zrotation Xrotation Yrotation
                        JOINT LeftHand
                        {
                            OFFSET 47.774071 0.000000 0.000000
                            CHANNELS 3 Zrotation Xrotation Yrotation
                            End Site
                            {
                                OFFSET 26.556021 0.000000 0.000000
                            }
                        }
                    }
                }
            }
            JOINT RightShoulder
            {
                OFFSET -7.065357 33.973492 -0.192664
                CHANNELS 3 Zrotation Xrotation Yrotation
                JOINT RightArm
                {
                    OFFSET -21.527611 0.000000 0.000000
                    CHANNELS 3 Zrotation Xrotation Yrotation
                    JOINT RightForeArm
                    {
                        OFFSET -56.353916 0.000000 0.000000
                        CHANNELS 3 Zrotation Xrotation Yrotation
                        JOINT RightHand
                        {
                            OFFSET -47.774071 0.000000 0.000000
                            CHANNELS 3 Zrotation Xrotation Yrotation
                            End Site
                            {
                                OFFSET -26.556021 0.000000 0.000000
                            }
                        }
                    }
                }
            }
        }
    }
    JOINT LeftUpLeg
    {
        OFFSET 17.704014 0.000000 0.000000
        CHANNELS 3 Zrotation Xrotation Yrotation
        JOINT LeftLeg
        {
            OFFSET -0.000000 -81.181816 0.000000
            CHANNELS 3 Zrotation Xrotation Yrotation
            JOINT LeftFoot
            {
                OFFSET -0.000000 -62.821102 0.000000
                CHANNELS 3 Zrotation Xrotation Yrotation
                JOINT LeftToeBase
                {
                    OFFSET -0.000000 -11.507608 26.556021
                    CHANNELS 3 Zrotation Xrotation Yrotation
                    End Site
                    {
                        OFFSET -0.000000 0.000000 7.081605
                    }
                }
            }
        }
    }
    JOINT RightUpLeg
    {
        OFFSET -17.704014 0.000000 0.000000
        CHANNELS 3 Zrotation Xrotation Yrotation
        JOINT RightLeg
        {
            OFFSET -0.000000 -81.181816 0.000000
            CHANNELS 3 Zrotation Xrotation Yrotation
            JOINT RightFoot
            {
                OFFSET -0.000000 -62.821102 0.000000
                CHANNELS 3 Zrotation Xrotation Yrotation
                JOINT RightToeBase
                {
                    OFFSET -0.000000 -11.507608 26.556021
                    CHANNELS 3 Zrotation Xrotation Yrotation
                    End Site
                    {
                        OFFSET -0.000000 0.000000 7.081605
                    }
                }
            }
        }
    }
}
MOTION
Frames:    7
Frame Time:    0.008333
26.703299    144.701035    51.168285    4.662849    2.441931    -61.535965    -1.458865    0.855384    1.250965    7.478489    -3.421231    0.638506    17.046589    7.851372    18.312843    -17.935280    3.249831    15.752771    29.867460    -9.893971    -10.842516    13.144858    -24.980883    -5.989958    3.597708    2.353292    -99.176033    0.580218    6.423450    -28.208254    -9.317770    -3.206522    -8.091056    32.750538    -28.215780    42.686054    17.238016    -12.909587    111.992195    20.745668    -31.351824    32.751305    37.079628    -23.829247    30.725189    -34.032398    45.230312    8.290112    1.973335    -15.737074    44.198120    0.000000    0.000000    0.000000    -32.184925    -13.150975    -17.853319    3.945636    33.982685    -6.215919    20.305943    -10.428793    7.039190    0.000000    0.000000    0.000000    
26.706659    144.698380    51.158894    4.673660    2.449019    -61.532803    -1.451365    0.840529    1.244547    7.469419    -3.409221    0.635420    17.014519    7.832595    18.297050    -17.879322    3.272402    15.745497    29.834126    -9.865994    -10.834708    13.113837    -24.916733    -6.010793    3.664772    2.418990    -99.120628    0.626988    6.551539    -28.185787    -9.348110    -3.207530    -8.104837    32.743687    -28.249838    42.678410    17.245222    -12.845933    111.996918    20.736881    -31.314222    32.728012    37.089081    -23.841681    30.758511    -34.012810    45.240669    8.268490    1.962449    -15.731003    44.181595    0.000000    0.000000    0.000000    -32.185005    -13.165968    -17.866354    3.928160    33.993961    -6.195729    20.320400    -10.425242    7.068222    0.000000    0.000000    0.000000    
26.711618    144.693298    51.147842    4.688542    2.462702    -61.541634    -1.434067    0.819766    1.241833    7.446705    -3.399170    0.633437    16.995531    7.808758    18.293102    -17.828396    3.313559    15.751172    29.802898    -9.830063    -10.833241    13.096981    -24.871029    -6.016116    3.647256    2.515301    -99.057175    0.658127    6.614304    -28.181068    -9.371302    -3.209180    -8.104333    32.726116    -28.276577    42.656273    17.253435    -12.810680    112.011391    20.726549    -31.303629    32.726776    37.109013    -23.854084    30.795273    -34.007065    45.252258    8.248407    1.980756    -15.719997    44.183746    0.000000    0.000000    0.000000    -32.179955    -13.196445    -17.866510    3.933395    34.005371    -6.203159    20.325432    -10.436260    7.055996    0.000000    0.000000    0.000000    
26.714369    144.690201    51.139755    4.700308    2.470987    -61.548676    -1.420548    0.803927    1.238578    7.418976    -3.385707    0.630670    16.982603    7.795188    18.290218    -17.780657    3.337898    15.756094    29.785040    -9.818198    -10.824392    13.059228    -24.800434    -6.039361    3.616718    2.607763    -98.969131    0.726923    6.646735    -28.203197    -9.394295    -3.224683    -8.113359    32.696453    -28.271862    42.624489    17.255144    -12.816825    112.028534    20.719440    -31.322809    32.714363    37.126980    -23.857439    30.809797    -34.030941    45.242283    8.264090    1.977019    -15.718144    44.185715    0.000000    0.000000    0.000000    -32.178497    -13.220861    -17.870106    3.926566    34.019577    -6.178309    20.328665    -10.442755    7.046674    0.000000    0.000000    0.000000    
26.718102    144.686920    51.130020    4.713795    2.483399    -61.560104    -1.417920    0.791413    1.235880    7.414517    -3.384316    0.629647    16.981627    7.781037    18.286257    -17.760515    3.384262    15.759194    29.750679    -9.792264    -10.831265    13.049355    -24.751789    -6.031677    3.482187    2.745751    -98.880150    0.766213    6.611116    -28.217804    -9.419764    -3.239658    -8.119040    32.658497    -28.278082    42.586689    17.247715    -12.822146    112.033379    20.698746    -31.330433    32.680717    37.148716    -23.862333    30.826044    -34.051071    45.232254    8.272285    1.970963    -15.725493    44.196476    0.000000    0.000000    0.000000    -32.176651    -13.253517    -17.886883    3.925764    34.039341    -6.175399    20.319857    -10.451857    7.044532    0.000000    0.000000    0.000000    
26.722610    144.685547    51.119434    4.725959    2.498019    -61.574570    -1.412031    0.778254    1.233994    7.403643    -3.381877    0.628673    16.957047    7.770188    18.277206    -17.707178    3.414344    15.760514    29.710741    -9.766020    -10.849657    13.039939    -24.639746    -6.020409    3.453537    2.781164    -98.759705    0.837937    6.586312    -28.261154    -9.439499    -3.243028    -8.130537    32.638390    -28.325317    42.559746    17.285261    -12.767321    112.022896    20.688871    -31.329832    32.691303    37.171001    -23.867481    30.847795    -34.067802    45.228134    8.293752    1.969061    -15.727787    44.197784    0.000000    0.000000    0.000000    -32.170311    -13.280467    -17.866095    3.944031    34.041061    -6.179219    20.332584    -10.455729    7.028182    0.000000    0.000000    0.000000    
26.725847    144.683914    51.111008    4.735029    2.509366    -61.583702    -1.405147    0.770680    1.222485    7.391796    -3.378226    0.624282    16.955553    7.770663    18.274006    -17.697243    3.441574    15.762635    29.660267    -9.743450    -10.866266    13.061133    -24.580191    -6.003842    3.395700    2.909871    -98.619087    0.917021    6.617093    -28.316978    -9.473886    -3.250200    -8.143325    32.629192    -28.356583    42.528881    17.296394    -12.742136    112.012192    20.701172    -31.314497    32.693947    37.186131    -23.873594    30.858543    -34.074127    45.223190    8.297242    1.982103    -15.715223    44.205933    0.000000    0.000000    0.000000    -32.165802    -13.299973    -17.854782    3.954596    34.041710    -6.176295    20.314949    -10.449443    7.024062    0.000000    0.000000    0.000000    
